#!OML:ASF E:\Steps\Project 1\Capture day 1\Session 2\Subject.ASF
:FULLY-SPECIFIED
:DEGREES
255
root 2.32778 17.118 11.6806 -136.676 -8.75384 164.763
lowerback -20.0428 -8.1436 -3.70412
upperback -1.50952 -10.2759 -0.000299645
thorax 10.1004 -5.17485 -0.908089
lowerneck -1.51421 -4.18394 -3.33003
upperneck 13.1406 -4.78787 -0.784088
head 4.69862 -2.33811 0.119465
rclavicle -3.72224e-014 -3.76697e-014
rhumerus -51.1808 -10.3509 -77.0802
rradius 40.4063
rwrist -3.24828
rhand -4.86183 -53.8123
rfingers 7.12502
rthumb 20.9262 -82.7035
lclavicle -3.72224e-014 -3.76697e-014
lhumerus -19.9284 -20.2562 62.7457
lradius 48.3228
lwrist 5.49129
lhand -22.4113 -13.4857
lfingers 7.12502
lthumb 4.01163 16.4562
rfemur -55.4174 -1.57958 -10.9637
rtibia 17.399
rfoot -10.5013 -20.9343
rtoes -13.5887
lfemur -17.3044 -14.8866 -16.1994
ltibia 27.317
lfoot -11.3265 -9.38163
ltoes -8.58782
256
root 2.35906 17.1169 11.6246 -136.417 -8.82066 164.617
lowerback -19.9774 -8.26371 -3.63333
upperback -1.54983 -10.4601 0.11338
thorax 10.0362 -5.26154 -0.866114
lowerneck -1.32985 -4.0968 -3.41902
upperneck 13.0099 -4.6621 -0.871124
head 4.6118 -2.28266 0.117335
rclavicle 1.1281e-013 2.78795e-014
rhumerus -51.1485 -10.1173 -77.1741
rradius 40.3895
rwrist -3.38051
rhand -4.7187 -53.7929
rfingers 7.12502
rthumb 21.0637 -82.6689
lclavicle 1.1281e-013 2.78795e-014
lhumerus -19.1017 -19.5976 62.619
lradius 48.422
lwrist 5.2689
lhand -22.5487 -13.3389
lfingers 7.12502
lthumb 3.87888 16.6056
rfemur -55.5409 -1.91032 -10.6829
rtibia 17.5853
rfoot -10.6409 -20.6455
rtoes -13.8423
lfemur -17.4424 -15.0437 -16.1232
ltibia 27.3271
lfoot -10.8228 -8.90308
ltoes -9.59523
257
root 2.39267 17.121 11.5698 -136.327 -8.81709 164.45
lowerback -19.7284 -8.32038 -3.57593
upperback -1.50146 -10.5495 0.103867
thorax 9.94558 -5.30128 -0.900856
lowerneck -1.16309 -4.02832 -3.42499
upperneck 12.7543 -4.59838 -0.829026
head 4.4848 -2.25231 0.141922
rclavicle -1.40143e-014 3.07122e-014
rhumerus -51.0084 -10.2418 -77.1863
rradius 40.2505
rwrist -3.45313
rhand -4.62952 -53.6385
rfingers 7.12502
rthumb 21.1493 -82.505
lclavicle -1.40143e-014 3.07122e-014
lhumerus -18.206 -19.0927 62.4195
lradius 48.5497
lwrist 5.04278
lhand -22.8943 -13.4235
lfingers 7.12502
lthumb 3.54513 16.5268
rfemur -55.5582 -2.07943 -10.4773
rtibia 17.8389
rfoot -10.7862 -20.3729
rtoes -14.5937
lfemur -17.5157 -15.2109 -16.1536
ltibia 27.5342
lfoot -10.5722 -8.16236
ltoes -15.1142
258
root 2.4298 17.1261 11.5176 -136.172 -8.77195 164.351
lowerback -19.4925 -8.35903 -3.5338
upperback -1.55014 -10.6216 0.114056
thorax 9.75954 -5.33897 -0.893413
lowerneck -0.855134 -3.88826 -3.50048
upperneck 12.6342 -4.4275 -0.722089
head 4.38258 -2.1635 0.206167
rclavicle -1.25731e-014 1.23743e-014
rhumerus -51.0409 -10.2233 -77.2135
rradius 40.2674
rwrist -3.7525
rhand -4.76786 -53.34
rfingers 7.12502
rthumb 21.0164 -82.2213
lclavicle -1.25731e-014 1.23743e-014
lhumerus -17.6195 -18.6455 62.3014
lradius 48.8438
lwrist 4.87264
lhand -23.1363 -13.7061
lfingers 7.12502
lthumb 3.31143 16.2479
rfemur -55.7455 -2.09161 -10.3139
rtibia 18.1974
rfoot -11.0579 -20.3119
rtoes -14.239
lfemur -17.7332 -15.1901 -16.093
ltibia 27.7838
lfoot -10.1389 -7.78456
ltoes -16.7736
259
root 2.46369 17.1303 11.4626 -136.074 -8.68636 164.323
lowerback -19.365 -8.20821 -3.27782
upperback -1.2517 -10.4444 -0.0594265
thorax 9.93703 -5.22919 -1.16981
lowerneck -1.38256 -3.82807 -3.22913
upperneck 12.2309 -4.42879 -0.550936
head 4.3354 -2.16561 0.209049
rclavicle -4.99695e-014 -2.32578e-014
rhumerus -50.5893 -10.8453 -77.4524
rradius 40.3184
rwrist -4.14502
rhand -5.09782 -53.1853
rfingers 7.12502
rthumb 20.6994 -82.1014
lclavicle -4.99695e-014 -2.32578e-014
lhumerus -16.1319 -18.4311 61.8562
lradius 49.0061
lwrist 4.96448
lhand -23.0958 -13.8952
lfingers 7.12502
lthumb 3.35061 16.0583
rfemur -55.9132 -2.15726 -9.96797
rtibia 18.5481
rfoot -11.2889 -20.0642
rtoes -13.459
lfemur -17.8178 -15.0083 -16.0277
ltibia 27.9334
lfoot -9.44585 -7.60079
ltoes -15.5269
260
root 2.49805 17.1383 11.4106 -136.046 -8.50656 164.329
lowerback -19.1733 -8.25499 -3.30224
upperback -1.24092 -10.5088 0.0267584
thorax 9.86766 -5.26225 -1.05663
lowerneck -1.033 -3.70651 -3.42297
upperneck 11.9707 -4.2778 -0.510874
head 4.17697 -2.09637 0.271957
rclavicle -3.0911e-014 -8.89561e-015
rhumerus -50.4829 -10.624 -77.5046
rradius 40.3081
rwrist -4.55269
rhand -5.1514 -53.3357
rfingers 7.12502
rthumb 20.6479 -82.2574
lclavicle -3.0911e-014 -8.89561e-015
lhumerus -15.7064 -17.7974 61.9311
lradius 49.3701
lwrist 5.11347
lhand -23.1079 -13.883
lfingers 7.12502
lthumb 3.3389 16.0706
rfemur -56.033 -2.12599 -9.66571
rtibia 18.7692
rfoot -11.407 -19.7551
rtoes -13.3357
lfemur -17.8597 -14.6856 -16.0046
ltibia 28.1264
lfoot -8.66471 -7.44774
ltoes -14.889
261
root 2.53246 17.1442 11.3549 -135.996 -8.34724 164.4
lowerback -19.0031 -8.29528 -3.23839
upperback -1.2371 -10.5831 0.118613
thorax 9.78798 -5.29643 -0.988944
lowerneck -0.868014 -3.62598 -3.48225
upperneck 11.9386 -4.14766 -0.668311
head 4.12834 -2.03753 0.238823
rclavicle -2.60905e-015 4.96962e-015
rhumerus -50.4094 -10.3878 -77.5874
rradius 40.4783
rwrist -4.85909
rhand -5.15773 -53.1464
rfingers 7.12502
rthumb 20.6419 -82.0688
lclavicle -2.60905e-015 4.96962e-015
lhumerus -15.4417 -17.3438 61.9593
lradius 49.9814
lwrist 5.47053
lhand -23.3066 -13.6447
lfingers 7.12502
lthumb 3.14705 16.3118
rfemur -56.1241 -1.93446 -9.41323
rtibia 18.8756
rfoot -11.5561 -19.6004
rtoes -13.3704
lfemur -17.9098 -14.3055 -15.8899
ltibia 28.2917
lfoot -7.86954 -7.33694
ltoes -13.4103
262
root 2.56424 17.1466 11.2913 -136.054 -8.2136 164.525
lowerback -18.725 -8.30011 -3.09312
upperback -1.28079 -10.6322 0.202926
thorax 9.57942 -5.31895 -0.94367
lowerneck -0.779071 -3.56785 -3.4988
upperneck 12.0287 -4.03521 -0.859331
head 4.13705 -1.98572 0.183797
rclavicle -1.52816e-014 1.63997e-015
rhumerus -50.4941 -10.0521 -77.6313
rradius 40.7846
rwrist -5.46768
rhand -5.11618 -52.9565
rfingers 7.12502
rthumb 20.6818 -81.8746
lclavicle -1.52816e-014 1.63997e-015
lhumerus -15.2586 -17.1421 62.0549
lradius 50.4606
lwrist 5.96447
lhand -23.7137 -13.5588
lfingers 7.12502
lthumb 2.7539 16.4032
rfemur -56.1087 -1.73072 -9.00273
rtibia 19.0426
rfoot -11.9093 -19.2846
rtoes -13.0353
lfemur -17.7368 -13.9347 -15.7521
ltibia 28.3111
lfoot -6.97 -7.10164
ltoes -10.583
263
root 2.59716 17.152 11.2263 -136.12 -8.1367 164.717
lowerback -19.0804 -8.24173 -2.93032
upperback -0.869452 -10.5471 0.20973
thorax 10.203 -5.24463 -1.09012
lowerneck -0.782972 -3.51935 -3.41627
upperneck 11.3731 -4.05024 -0.736214
head 3.90317 -1.99837 0.215325
rclavicle 1.41634e-015 1.80397e-014
rhumerus -49.8155 -10.2767 -77.7941
rradius 40.7868
rwrist -5.9988
rhand -4.98774 -52.9891
rfingers 7.12502
rthumb 20.8052 -81.8936
lclavicle 1.41634e-015 1.80397e-014
lhumerus -14.0538 -16.9484 61.9074
lradius 50.4954
lwrist 6.46863
lhand -23.8299 -13.5785
lfingers 7.12502
lthumb 2.64161 16.3849
rfemur -56.1315 -1.61333 -8.37396
rtibia 19.3123
rfoot -12.395 -18.8281
rtoes -12.8724
lfemur -17.5783 -13.5983 -15.511
ltibia 28.2957
lfoot -5.98247 -6.79547
ltoes -7.63174
264
root 2.63203 17.158 11.1647 -136.066 -8.04809 164.945
lowerback -18.9076 -8.21679 -2.73495
upperback -0.988069 -10.5713 0.32084
thorax 9.96303 -5.25623 -1.04431
lowerneck -0.59917 -3.38787 -3.58461
upperneck 11.508 -3.85661 -0.691357
head 3.91868 -1.90148 0.26889
rclavicle -2.50966e-014 -7.45443e-015
rhumerus -49.8644 -9.95121 -77.8368
rradius 40.9093
rwrist -6.35753
rhand -4.86527 -53.0645
rfingers 7.12502
rthumb 20.9229 -81.9561
lclavicle -2.50966e-014 -7.45443e-015
lhumerus -13.8512 -16.7291 62.1886
lradius 50.6214
lwrist 6.782
lhand -23.7295 -13.3617
lfingers 7.12502
lthumb 2.73863 16.6004
rfemur -56.303 -1.58158 -7.66913
rtibia 19.5618
rfoot -12.6913 -18.4472
rtoes -13.2997
lfemur -17.6638 -13.2709 -15.2055
ltibia 28.478
lfoot -5.08573 -6.56479
ltoes -5.02013
265
root 2.66767 17.1637 11.1053 -136.044 -7.82565 165.085
lowerback -18.8609 -8.27091 -2.79024
upperback -1.09849 -10.6464 0.420766
thorax 9.84662 -5.30144 -0.913503
lowerneck -0.212645 -3.31255 -3.6509
upperneck 11.8604 -3.70436 -0.80268
head 3.96665 -1.81853 0.253245
rclavicle -1.73937e-015 5.55106e-014
rhumerus -49.8991 -9.50073 -77.9052
rradius 41.0439
rwrist -6.57803
rhand -4.7553 -52.9174
rfingers 7.12502
rthumb 21.0285 -81.7973
lclavicle -1.73937e-015 5.55106e-014
lhumerus -14.0862 -16.4333 62.5684
lradius 51.022
lwrist 6.97103
lhand -23.8917 -13.3636
lfingers 7.12502
lthumb 2.58196 16.6005
rfemur -56.3482 -1.5278 -7.15969
rtibia 19.5619
rfoot -13.0052 -18.0958
rtoes -12.8155
lfemur -17.7639 -12.9741 -15.0924
ltibia 28.8281
lfoot -4.10589 -6.44975
ltoes -0.832046
266
root 2.69153 17.1683 11.0387 -136.058 -7.61912 165.08
lowerback -18.9635 -8.35265 -2.82345
upperback -1.03973 -10.7437 0.442802
thorax 9.98178 -5.34495 -0.921699
lowerneck -0.134223 -3.22115 -3.68391
upperneck 11.9503 -3.56044 -0.89215
head 3.98006 -1.7487 0.235355
rclavicle 7.34261e-015 5.73866e-014
rhumerus -49.5868 -9.16273 -78.0479
rradius 41.0797
rwrist -6.82356
rhand -4.78796 -52.5322
rfingers 7.12502
rthumb 20.9971 -81.4156
lclavicle 7.34261e-015 5.73866e-014
lhumerus -14.0891 -16.1332 62.874
lradius 51.4078
lwrist 6.88955
lhand -24.3977 -13.6624
lfingers 7.12502
lthumb 2.0933 16.307
rfemur -56.1136 -1.69464 -6.75266
rtibia 19.3617
rfoot -13.5495 -17.4228
rtoes -11.2426
lfemur -17.7572 -12.9377 -15.2534
ltibia 29.1744
lfoot -3.18499 -6.12159
ltoes 1.2463
267
root 2.71013 17.1737 10.9695 -136.033 -7.48615 165.105
lowerback -19.1171 -8.43078 -2.74518
upperback -0.955316 -10.8579 0.511612
thorax 10.1636 -5.38909 -0.953964
lowerneck -0.275228 -3.05223 -3.90429
upperneck 11.8173 -3.33627 -0.882574
head 3.96206 -1.65148 0.283856
rclavicle 6.14369e-014 2.54817e-014
rhumerus -49.2031 -8.72281 -78.1738
rradius 41.2174
rwrist -6.95824
rhand -4.88949 -52.3986
rfingers 7.12502
rthumb 20.8996 -81.2928
lclavicle 6.14369e-014 2.54817e-014
lhumerus -13.9515 -15.8188 63.2358
lradius 51.698
lwrist 6.61368
lhand -25.0605 -14.1188
lfingers 7.12502
lthumb 1.4531 15.856
rfemur -55.933 -2.06751 -6.0356
rtibia 19.3777
rfoot -13.9274 -16.367
rtoes -10.4535
lfemur -17.8216 -12.7986 -15.4108
ltibia 29.6978
lfoot -2.43779 -5.71635
ltoes 0.808778
268
root 2.73391 17.1805 10.9094 -135.92 -7.42915 165.261
lowerback -19.3392 -8.45711 -2.53048
upperback -0.959527 -10.9373 0.566034
thorax 10.2542 -5.41453 -1.06472
lowerneck -0.2652 -2.94176 -4.03092
upperneck 11.942 -3.17714 -0.822846
head 4.00662 -1.57391 0.331017
rclavicle -6.7857e-014 -2.03195e-014
rhumerus -48.9543 -8.51728 -78.2063
rradius 41.3241
rwrist -6.70951
rhand -4.77657 -52.3439
rfingers 7.12502
rthumb 21.0081 -81.2261
lclavicle -6.7857e-014 -2.03195e-014
lhumerus -14.0387 -15.6826 63.5545
lradius 52.1102
lwrist 6.4584
lhand -25.4192 -14.6654
lfingers 7.12502
lthumb 1.1067 15.3115
rfemur -55.9348 -2.28564 -5.31152
rtibia 19.4637
rfoot -13.9479 -15.6721
rtoes -9.98676
lfemur -18.3087 -12.525 -15.3151
ltibia 30.7444
lfoot -2.04447 -5.27563
ltoes -2.19377
269
root 2.76778 17.1874 10.8567 -135.869 -7.29931 165.421
lowerback -19.4462 -8.48408 -2.48817
upperback -0.95966 -10.983 0.592383
thorax 10.3115 -5.43324 -1.08857
lowerneck -0.199063 -2.90737 -4.06037
upperneck 12.1945 -3.10956 -0.793748
head 4.0848 -1.53579 0.347881
rclavicle -2.00524e-014 -3.46631e-014
rhumerus -48.6036 -8.48643 -78.2221
rradius 41.2505
rwrist -6.3928
rhand -4.35918 -52.1994
rfingers 7.12502
rthumb 21.409 -81.0366
lclavicle -2.00524e-014 -3.46631e-014
lhumerus -14.1459 -15.5285 63.8658
lradius 52.4424
lwrist 6.40133
lhand -25.5446 -14.7552
lfingers 7.12502
lthumb 0.985568 15.2223
rfemur -55.9364 -2.16853 -4.86962
rtibia 19.4289
rfoot -13.853 -15.3558
rtoes -10.2888
lfemur -18.9555 -12.3273 -15.2123
ltibia 32.1644
lfoot -1.96608 -4.71278
ltoes -5.13913
